<svg width="188" height="39" viewBox="0 0 188 39" fill="none" xmlns="http://www.w3.org/2000/svg">
<rect y="35" width="42" height="2" fill="#CD1739"/>
<rect x="49" y="35" width="42" height="2" fill="#F88B0D"/>
<rect x="97" y="35" width="42" height="2" fill="#2D8777"/>
<rect x="146" y="35" width="42" height="2" fill="#592488"/>
<path d="M10.21 30.36C8.67 30.36 7.31 30.1 6.13 29.58C4.95 29.04 4.02 28.28 3.34 27.3C2.66 26.3 2.31 25.09 2.29 23.67H6.34C6.38 24.65 6.73 25.48 7.39 26.16C8.07 26.82 9 27.15 10.18 27.15C11.2 27.15 12.01 26.91 12.61 26.43C13.21 25.93 13.51 25.27 13.51 24.45C13.51 23.59 13.24 22.92 12.7 22.44C12.18 21.96 11.48 21.57 10.6 21.27C9.72 20.97 8.78 20.65 7.78 20.31C6.16 19.75 4.92 19.03 4.06 18.15C3.22 17.27 2.8 16.1 2.8 14.64C2.78 13.4 3.07 12.34 3.67 11.46C4.29 10.56 5.13 9.87 6.19 9.39C7.25 8.89 8.47 8.64 9.85 8.64C11.25 8.64 12.48 8.89 13.54 9.39C14.62 9.89 15.46 10.59 16.06 11.49C16.68 12.39 17.01 13.46 17.05 14.7H12.94C12.92 13.96 12.63 13.31 12.07 12.75C11.53 12.17 10.77 11.88 9.79 11.88C8.95 11.86 8.24 12.07 7.66 12.51C7.1 12.93 6.82 13.55 6.82 14.37C6.82 15.07 7.04 15.63 7.48 16.05C7.92 16.45 8.52 16.79 9.28 17.07C10.04 17.35 10.91 17.65 11.89 17.97C12.93 18.33 13.88 18.75 14.74 19.23C15.6 19.71 16.29 20.35 16.81 21.15C17.33 21.93 17.59 22.94 17.59 24.18C17.59 25.28 17.31 26.3 16.75 27.24C16.19 28.18 15.36 28.94 14.26 29.52C13.16 30.08 11.81 30.36 10.21 30.36ZM20.9404 30V9H24.7804L34.6504 23.79V9H38.4904V30H34.6504L24.7804 15.24V30H20.9404ZM50.6615 30.36C49.1215 30.36 47.7315 30.06 46.4915 29.46C45.2515 28.84 44.2615 27.91 43.5215 26.67C42.8015 25.43 42.4415 23.86 42.4415 21.96V9H46.2815V21.99C46.2815 23.63 46.6715 24.85 47.4515 25.65C48.2515 26.45 49.3515 26.85 50.7515 26.85C52.1315 26.85 53.2215 26.45 54.0215 25.65C54.8215 24.85 55.2215 23.63 55.2215 21.99V9H59.0615V21.96C59.0615 23.86 58.6815 25.43 57.9215 26.67C57.1615 27.91 56.1415 28.84 54.8615 29.46C53.6015 30.06 52.2015 30.36 50.6615 30.36ZM72.4914 30.36C70.3714 30.36 68.5514 29.91 67.0314 29.01C65.5114 28.09 64.3414 26.82 63.5214 25.2C62.7014 23.56 62.2914 21.67 62.2914 19.53C62.2914 17.39 62.7014 15.5 63.5214 13.86C64.3414 12.22 65.5114 10.94 67.0314 10.02C68.5514 9.1 70.3714 8.64 72.4914 8.64C75.0114 8.64 77.0714 9.27 78.6714 10.53C80.2914 11.77 81.3014 13.52 81.7014 15.78H77.4714C77.2114 14.64 76.6514 13.75 75.7914 13.11C74.9514 12.45 73.8314 12.12 72.4314 12.12C70.4914 12.12 68.9714 12.78 67.8714 14.1C66.7714 15.42 66.2214 17.23 66.2214 19.53C66.2214 21.83 66.7714 23.64 67.8714 24.96C68.9714 26.26 70.4914 26.91 72.4314 26.91C73.8314 26.91 74.9514 26.61 75.7914 26.01C76.6514 25.39 77.2114 24.54 77.4714 23.46H81.7014C81.3014 25.62 80.2914 27.31 78.6714 28.53C77.0714 29.75 75.0114 30.36 72.4914 30.36ZM92.1505 30.36C90.7105 30.36 89.4105 30.03 88.2505 29.37C87.1105 28.71 86.2005 27.8 85.5205 26.64C84.8605 25.46 84.5305 24.1 84.5305 22.56C84.5305 21.02 84.8705 19.67 85.5505 18.51C86.2305 17.33 87.1405 16.41 88.2805 15.75C89.4405 15.09 90.7405 14.76 92.1805 14.76C93.6005 14.76 94.8805 15.09 96.0205 15.75C97.1805 16.41 98.0905 17.33 98.7505 18.51C99.4305 19.67 99.7705 21.02 99.7705 22.56C99.7705 24.1 99.4305 25.46 98.7505 26.64C98.0905 27.8 97.1805 28.71 96.0205 29.37C94.8605 30.03 93.5705 30.36 92.1505 30.36ZM92.1505 27.03C93.1505 27.03 94.0205 26.66 94.7605 25.92C95.5005 25.16 95.8705 24.04 95.8705 22.56C95.8705 21.08 95.5005 19.97 94.7605 19.23C94.0205 18.47 93.1605 18.09 92.1805 18.09C91.1605 18.09 90.2805 18.47 89.5405 19.23C88.8205 19.97 88.4605 21.08 88.4605 22.56C88.4605 24.04 88.8205 25.16 89.5405 25.92C90.2805 26.66 91.1505 27.03 92.1505 27.03ZM103.204 30V15.12H106.594L106.894 17.64C107.354 16.76 108.014 16.06 108.874 15.54C109.754 15.02 110.784 14.76 111.964 14.76C113.804 14.76 115.234 15.34 116.254 16.5C117.274 17.66 117.784 19.36 117.784 21.6V30H113.944V21.96C113.944 20.68 113.684 19.7 113.164 19.02C112.644 18.34 111.834 18 110.734 18C109.654 18 108.764 18.38 108.064 19.14C107.384 19.9 107.044 20.96 107.044 22.32V30H103.204ZM121.456 30V15.12H124.846L125.146 17.64C125.606 16.76 126.266 16.06 127.126 15.54C128.006 15.02 129.036 14.76 130.216 14.76C132.056 14.76 133.486 15.34 134.506 16.5C135.526 17.66 136.036 19.36 136.036 21.6V30H132.196V21.96C132.196 20.68 131.936 19.7 131.416 19.02C130.896 18.34 130.086 18 128.986 18C127.906 18 127.016 18.38 126.316 19.14C125.636 19.9 125.296 20.96 125.296 22.32V30H121.456ZM146.938 30.36C145.438 30.36 144.108 30.04 142.948 29.4C141.788 28.76 140.878 27.86 140.218 26.7C139.558 25.54 139.228 24.2 139.228 22.68C139.228 21.14 139.548 19.77 140.188 18.57C140.848 17.37 141.748 16.44 142.888 15.78C144.048 15.1 145.408 14.76 146.968 14.76C148.428 14.76 149.718 15.08 150.838 15.72C151.958 16.36 152.828 17.24 153.448 18.36C154.088 19.46 154.408 20.69 154.408 22.05C154.408 22.27 154.398 22.5 154.378 22.74C154.378 22.98 154.368 23.23 154.348 23.49H143.038C143.118 24.65 143.518 25.56 144.238 26.22C144.978 26.88 145.868 27.21 146.908 27.21C147.688 27.21 148.338 27.04 148.858 26.7C149.398 26.34 149.798 25.88 150.058 25.32H153.958C153.678 26.26 153.208 27.12 152.548 27.9C151.908 28.66 151.108 29.26 150.148 29.7C149.208 30.14 148.138 30.36 146.938 30.36ZM146.968 17.88C146.028 17.88 145.198 18.15 144.478 18.69C143.758 19.21 143.298 20.01 143.098 21.09H150.508C150.448 20.11 150.088 19.33 149.428 18.75C148.768 18.17 147.948 17.88 146.968 17.88ZM164.928 30.36C163.408 30.36 162.068 30.03 160.908 29.37C159.748 28.71 158.828 27.79 158.148 26.61C157.488 25.43 157.158 24.08 157.158 22.56C157.158 21.04 157.488 19.69 158.148 18.51C158.828 17.33 159.748 16.41 160.908 15.75C162.068 15.09 163.408 14.76 164.928 14.76C166.828 14.76 168.428 15.26 169.728 16.26C171.028 17.24 171.858 18.6 172.217 20.34H168.168C167.968 19.62 167.568 19.06 166.968 18.66C166.388 18.24 165.698 18.03 164.898 18.03C163.838 18.03 162.938 18.43 162.198 19.23C161.458 20.03 161.088 21.14 161.088 22.56C161.088 23.98 161.458 25.09 162.198 25.89C162.938 26.69 163.838 27.09 164.898 27.09C165.698 27.09 166.388 26.89 166.968 26.49C167.568 26.09 167.968 25.52 168.168 24.78H172.217C171.858 26.46 171.028 27.81 169.728 28.83C168.428 29.85 166.828 30.36 164.928 30.36ZM182.051 30C180.491 30 179.241 29.62 178.301 28.86C177.361 28.1 176.891 26.75 176.891 24.81V18.33H174.341V15.12H176.891L177.341 11.13H180.731V15.12H184.751V18.33H180.731V24.84C180.731 25.56 180.881 26.06 181.181 26.34C181.501 26.6 182.041 26.73 182.801 26.73H184.661V30H182.051Z" fill="black"/>
</svg>
