<svg width="395" height="83" viewBox="0 0 395 83" fill="none" xmlns="http://www.w3.org/2000/svg">
<rect y="77" width="88" height="5" fill="#CD1739"/>
<rect x="103" y="77" width="88" height="5" fill="#F88B0D"/>
<rect x="204" y="77" width="88" height="5" fill="#2D8777"/>
<rect x="307" y="77" width="88" height="5" fill="#592488"/>
<path d="M19.648 63.768C16.3627 63.768 13.4613 63.2133 10.944 62.104C8.42667 60.952 6.44267 59.3307 4.992 57.24C3.54133 55.1067 2.79467 52.5253 2.752 49.496H11.392C11.4773 51.5867 12.224 53.3573 13.632 54.808C15.0827 56.216 17.0667 56.92 19.584 56.92C21.76 56.92 23.488 56.408 24.768 55.384C26.048 54.3173 26.688 52.9093 26.688 51.16C26.688 49.3253 26.112 47.896 24.96 46.872C23.8507 45.848 22.3573 45.016 20.48 44.376C18.6027 43.736 16.5973 43.0533 14.464 42.328C11.008 41.1333 8.36267 39.5973 6.528 37.72C4.736 35.8427 3.84 33.3467 3.84 30.232C3.79733 27.5867 4.416 25.3253 5.696 23.448C7.01867 21.528 8.81067 20.056 11.072 19.032C13.3333 17.9653 15.936 17.432 18.88 17.432C21.8667 17.432 24.4907 17.9653 26.752 19.032C29.056 20.0987 30.848 21.592 32.128 23.512C33.4507 25.432 34.1547 27.7147 34.24 30.36H25.472C25.4293 28.7813 24.8107 27.3947 23.616 26.2C22.464 24.9627 20.8427 24.344 18.752 24.344C16.96 24.3013 15.4453 24.7493 14.208 25.688C13.0133 26.584 12.416 27.9067 12.416 29.656C12.416 31.1493 12.8853 32.344 13.824 33.24C14.7627 34.0933 16.0427 34.8187 17.664 35.416C19.2853 36.0133 21.1413 36.6533 23.232 37.336C25.4507 38.104 27.4773 39 29.312 40.024C31.1467 41.048 32.6187 42.4133 33.728 44.12C34.8373 45.784 35.392 47.9387 35.392 50.584C35.392 52.9307 34.7947 55.1067 33.6 57.112C32.4053 59.1173 30.6347 60.7387 28.288 61.976C25.9413 63.1707 23.0613 63.768 19.648 63.768ZM42.5395 63V18.2H50.7315L71.7875 49.752V18.2H79.9795V63H71.7875L50.7315 31.512V63H42.5395ZM105.945 63.768C102.659 63.768 99.6938 63.128 97.0485 61.848C94.4032 60.5253 92.2912 58.5413 90.7125 55.896C89.1765 53.2507 88.4085 49.9013 88.4085 45.848V18.2H96.6005V45.912C96.6005 49.4107 97.4325 52.0133 99.0965 53.72C100.803 55.4267 103.15 56.28 106.137 56.28C109.081 56.28 111.406 55.4267 113.113 53.72C114.819 52.0133 115.673 49.4107 115.673 45.912V18.2H123.865V45.848C123.865 49.9013 123.054 53.2507 121.433 55.896C119.811 58.5413 117.635 60.5253 114.905 61.848C112.217 63.128 109.23 63.768 105.945 63.768ZM152.515 63.768C147.992 63.768 144.11 62.808 140.867 60.888C137.624 58.9253 135.128 56.216 133.379 52.76C131.63 49.2613 130.755 45.2293 130.755 40.664C130.755 36.0987 131.63 32.0667 133.379 28.568C135.128 25.0693 137.624 22.3387 140.867 20.376C144.11 18.4133 147.992 17.432 152.515 17.432C157.891 17.432 162.286 18.776 165.699 21.464C169.155 24.1093 171.31 27.8427 172.163 32.664H163.139C162.584 30.232 161.39 28.3333 159.555 26.968C157.763 25.56 155.374 24.856 152.387 24.856C148.248 24.856 145.006 26.264 142.659 29.08C140.312 31.896 139.139 35.7573 139.139 40.664C139.139 45.5707 140.312 49.432 142.659 52.248C145.006 55.0213 148.248 56.408 152.387 56.408C155.374 56.408 157.763 55.768 159.555 54.488C161.39 53.1653 162.584 51.352 163.139 49.048H172.163C171.31 53.656 169.155 57.2613 165.699 59.864C162.286 62.4667 157.891 63.768 152.515 63.768ZM194.455 63.768C191.383 63.768 188.609 63.064 186.135 61.656C183.703 60.248 181.761 58.3067 180.311 55.832C178.903 53.3147 178.199 50.4133 178.199 47.128C178.199 43.8427 178.924 40.9627 180.375 38.488C181.825 35.9707 183.767 34.008 186.199 32.6C188.673 31.192 191.447 30.488 194.519 30.488C197.548 30.488 200.279 31.192 202.711 32.6C205.185 34.008 207.127 35.9707 208.535 38.488C209.985 40.9627 210.711 43.8427 210.711 47.128C210.711 50.4133 209.985 53.3147 208.535 55.832C207.127 58.3067 205.185 60.248 202.711 61.656C200.236 63.064 197.484 63.768 194.455 63.768ZM194.455 56.664C196.588 56.664 198.444 55.8747 200.023 54.296C201.601 52.6747 202.391 50.2853 202.391 47.128C202.391 43.9707 201.601 41.6027 200.023 40.024C198.444 38.4027 196.609 37.592 194.519 37.592C192.343 37.592 190.465 38.4027 188.887 40.024C187.351 41.6027 186.583 43.9707 186.583 47.128C186.583 50.2853 187.351 52.6747 188.887 54.296C190.465 55.8747 192.321 56.664 194.455 56.664ZM218.035 63V31.256H225.267L225.907 36.632C226.888 34.7547 228.296 33.2613 230.131 32.152C232.008 31.0427 234.206 30.488 236.723 30.488C240.648 30.488 243.699 31.7253 245.875 34.2C248.051 36.6747 249.139 40.3013 249.139 45.08V63H240.947V45.848C240.947 43.1173 240.392 41.0267 239.283 39.576C238.174 38.1253 236.446 37.4 234.099 37.4C231.795 37.4 229.896 38.2107 228.403 39.832C226.952 41.4533 226.227 43.7147 226.227 46.616V63H218.035ZM256.973 63V31.256H264.205L264.845 36.632C265.826 34.7547 267.234 33.2613 269.069 32.152C270.946 31.0427 273.143 30.488 275.661 30.488C279.586 30.488 282.637 31.7253 284.812 34.2C286.988 36.6747 288.076 40.3013 288.076 45.08V63H279.885V45.848C279.885 43.1173 279.33 41.0267 278.221 39.576C277.111 38.1253 275.383 37.4 273.037 37.4C270.733 37.4 268.834 38.2107 267.341 39.832C265.89 41.4533 265.165 43.7147 265.165 46.616V63H256.973ZM311.334 63.768C308.134 63.768 305.297 63.0853 302.822 61.72C300.347 60.3547 298.406 58.4347 296.998 55.96C295.59 53.4853 294.886 50.6267 294.886 47.384C294.886 44.0987 295.569 41.176 296.934 38.616C298.342 36.056 300.262 34.072 302.694 32.664C305.169 31.2133 308.07 30.488 311.398 30.488C314.513 30.488 317.265 31.1707 319.654 32.536C322.043 33.9013 323.899 35.7787 325.222 38.168C326.587 40.5147 327.27 43.1387 327.27 46.04C327.27 46.5093 327.249 47 327.206 47.512C327.206 48.024 327.185 48.5573 327.142 49.112H303.014C303.185 51.5867 304.038 53.528 305.574 54.936C307.153 56.344 309.051 57.048 311.27 57.048C312.934 57.048 314.321 56.6853 315.43 55.96C316.582 55.192 317.435 54.2107 317.99 53.016H326.31C325.713 55.0213 324.71 56.856 323.302 58.52C321.937 60.1413 320.23 61.4213 318.182 62.36C316.177 63.2987 313.894 63.768 311.334 63.768ZM311.398 37.144C309.393 37.144 307.622 37.72 306.086 38.872C304.55 39.9813 303.569 41.688 303.142 43.992H318.95C318.822 41.9013 318.054 40.2373 316.646 39C315.238 37.7627 313.489 37.144 311.398 37.144ZM349.712 63.768C346.469 63.768 343.611 63.064 341.136 61.656C338.661 60.248 336.699 58.2853 335.248 55.768C333.84 53.2507 333.136 50.3707 333.136 47.128C333.136 43.8853 333.84 41.0053 335.248 38.488C336.699 35.9707 338.661 34.008 341.136 32.6C343.611 31.192 346.469 30.488 349.712 30.488C353.765 30.488 357.179 31.5547 359.952 33.688C362.725 35.7787 364.496 38.68 365.264 42.392H356.624C356.197 40.856 355.344 39.6613 354.064 38.808C352.827 37.912 351.355 37.464 349.648 37.464C347.387 37.464 345.467 38.3173 343.888 40.024C342.309 41.7307 341.52 44.0987 341.52 47.128C341.52 50.1573 342.309 52.5253 343.888 54.232C345.467 55.9387 347.387 56.792 349.648 56.792C351.355 56.792 352.827 56.3653 354.064 55.512C355.344 54.6587 356.197 53.4427 356.624 51.864H365.264C364.496 55.448 362.725 58.328 359.952 60.504C357.179 62.68 353.765 63.768 349.712 63.768ZM386.242 63C382.914 63 380.247 62.1893 378.242 60.568C376.236 58.9467 375.234 56.0667 375.234 51.928V38.104H369.794V31.256H375.234L376.194 22.744H383.426V31.256H392.002V38.104H383.426V51.992C383.426 53.528 383.746 54.5947 384.385 55.192C385.068 55.7467 386.22 56.024 387.842 56.024H391.81V63H386.242Z" fill="#F8F9FA"/>
</svg>
